<svg xmlns="http://www.w3.org/2000/svg" xmlns:xlink="http://www.w3.org/1999/xlink" width="1024" zoomAndPan="magnify" viewBox="0 0 768 767.999994" height="1024" preserveAspectRatio="xMidYMid meet" version="1.0"><path fill="#275a8d" d="M 67.550781 177.3125 L 96.542969 177.3125 L 117.535156 180.3125 L 141.53125 186.308594 L 159.527344 192.308594 L 183.519531 202.304688 L 204.515625 212.304688 L 223.511719 223.300781 L 229.507812 227.300781 L 230.507812 253.292969 L 219.511719 247.296875 L 206.515625 239.296875 L 183.519531 227.300781 L 162.527344 218.300781 L 140.53125 210.304688 L 113.539062 203.304688 L 94.542969 200.308594 L 68.550781 200.308594 L 53.550781 204.304688 L 44.554688 209.304688 L 37.554688 216.304688 L 32.558594 226.300781 L 30.558594 234.296875 L 30.558594 250.292969 L 33.558594 266.289062 L 38.554688 282.285156 L 46.554688 302.28125 L 59.550781 326.277344 L 75.546875 350.269531 L 86.542969 365.265625 L 100.542969 383.261719 L 113.539062 398.257812 L 120.535156 406.257812 L 138.53125 426.25 L 153.527344 441.246094 L 159.527344 448.246094 L 167.523438 455.246094 L 185.519531 473.238281 L 193.519531 480.238281 L 208.515625 494.234375 L 219.511719 503.234375 L 228.511719 511.230469 L 250.503906 529.226562 L 280.496094 552.222656 L 299.492188 566.21875 L 316.488281 578.214844 L 339.484375 594.210938 L 357.476562 606.207031 L 371.476562 615.207031 L 388.472656 626.203125 L 403.46875 635.199219 L 411.464844 642.199219 L 423.460938 656.195312 L 437.457031 671.191406 L 445.457031 680.191406 L 443.457031 681.1875 L 436.460938 678.191406 L 148.53125 677.191406 L 136.53125 673.191406 L 126.535156 664.195312 L 120.535156 652.195312 L 119.535156 648.199219 L 119.535156 637.199219 L 123.535156 626.203125 L 132.535156 609.207031 L 145.53125 586.210938 L 161.527344 557.21875 L 174.523438 534.226562 L 188.519531 509.230469 L 188.519531 506.230469 L 180.523438 499.234375 L 173.523438 494.234375 L 160.527344 518.230469 L 147.53125 541.222656 L 122.535156 586.210938 L 108.539062 611.207031 L 103.539062 623.203125 L 100.542969 636.199219 L 100.542969 650.195312 L 103.539062 662.195312 L 109.539062 674.191406 L 118.535156 684.1875 L 128.535156 691.1875 L 137.53125 695.1875 L 145.53125 697.183594 L 468.453125 697.183594 L 481.449219 693.1875 L 491.445312 687.1875 L 496.445312 683.1875 L 505.441406 685.1875 L 527.4375 692.1875 L 525.4375 697.183594 L 519.4375 705.183594 L 511.441406 712.183594 L 501.441406 719.179688 L 488.445312 725.179688 L 479.449219 728.179688 L 467.453125 730.175781 L 144.53125 730.175781 L 127.535156 726.179688 L 115.539062 721.179688 L 103.539062 714.179688 L 91.542969 703.183594 L 83.546875 694.1875 L 77.546875 684.1875 L 72.546875 672.191406 L 69.546875 661.195312 L 68.550781 654.195312 L 68.550781 633.199219 L 71.546875 617.203125 L 77.546875 600.210938 L 87.542969 581.214844 L 99.542969 560.21875 L 112.539062 537.222656 L 126.535156 512.230469 L 140.53125 488.238281 L 149.527344 472.242188 L 145.53125 467.242188 L 142.53125 468.242188 L 129.535156 485.238281 L 118.535156 499.234375 L 104.539062 518.230469 L 91.542969 536.226562 L 81.546875 551.222656 L 68.550781 572.214844 L 58.550781 590.210938 L 47.554688 613.207031 L 40.554688 632.203125 L 36.558594 650.195312 L 35.558594 666.191406 L 37.554688 680.191406 L 41.554688 690.1875 L 48.554688 699.183594 L 55.550781 705.183594 L 67.550781 710.183594 L 85.542969 714.179688 L 97.542969 723.179688 L 111.539062 731.175781 L 119.535156 734.175781 L 119.535156 735.175781 L 107.539062 736.175781 L 80.546875 736.175781 L 64.550781 733.175781 L 48.554688 727.179688 L 38.554688 720.179688 L 28.558594 711.183594 L 20.5625 699.183594 L 15.5625 686.1875 L 13.5625 677.191406 L 13.5625 651.195312 L 17.5625 631.203125 L 25.558594 607.207031 L 36.558594 583.214844 L 46.554688 564.21875 L 59.550781 543.222656 L 71.546875 525.226562 L 85.542969 505.230469 L 98.542969 488.238281 L 109.539062 474.238281 L 120.535156 461.242188 L 128.535156 451.246094 L 127.535156 447.246094 L 115.539062 435.25 L 108.539062 427.25 L 99.542969 417.253906 L 90.542969 406.257812 L 82.546875 397.257812 L 69.546875 380.261719 L 56.550781 362.265625 L 46.554688 347.269531 L 34.558594 327.277344 L 25.558594 310.28125 L 15.5625 285.285156 L 10.5625 267.289062 L 7.5625 249.292969 L 7.5625 231.300781 L 11.5625 215.304688 L 17.5625 204.304688 L 26.558594 194.308594 L 36.558594 187.308594 L 46.554688 182.3125 L 60.550781 178.3125 Z M 67.550781 177.3125 " fill-opacity="1" fill-rule="nonzero"/><path fill="#254b72" d="M 554.429688 353.269531 L 605.417969 353.269531 L 608.417969 360.269531 L 614.414062 387.261719 L 614.414062 390.261719 L 621.414062 391.261719 L 637.410156 396.257812 L 656.40625 406.257812 L 661.402344 407.257812 L 674.402344 398.257812 L 686.398438 390.261719 L 690.398438 391.261719 L 698.394531 398.257812 L 715.390625 414.253906 L 725.386719 425.253906 L 726.386719 431.25 L 717.390625 446.246094 L 710.390625 456.246094 L 711.390625 463.242188 L 719.390625 480.238281 L 725.386719 498.234375 L 731.386719 500.234375 L 758.378906 505.234375 L 760.378906 507.230469 L 761.378906 514.230469 L 761.378906 552.222656 L 759.378906 559.21875 L 754.382812 561.21875 L 729.386719 565.21875 L 726.386719 566.21875 L 719.390625 585.210938 L 711.390625 601.207031 L 709.390625 607.207031 L 721.390625 626.203125 L 726.386719 633.199219 L 725.386719 638.199219 L 716.390625 648.199219 L 702.394531 663.195312 L 691.398438 674.191406 L 685.398438 674.191406 L 665.402344 662.195312 L 656.40625 657.195312 L 640.410156 666.191406 L 626.414062 672.191406 L 614.414062 676.191406 L 610.417969 691.1875 L 606.417969 709.183594 L 604.417969 711.183594 L 573.425781 712.183594 L 561.429688 712.183594 L 553.429688 711.183594 L 550.429688 705.183594 L 544.433594 677.191406 L 537.433594 674.191406 L 521.4375 669.191406 L 504.441406 660.195312 L 501.441406 658.195312 L 497.445312 659.195312 L 476.449219 673.191406 L 469.449219 674.191406 L 436.460938 641.199219 L 433.460938 637.199219 L 433.460938 632.203125 L 445.457031 614.207031 L 449.457031 607.207031 L 448.457031 602.207031 L 439.457031 583.214844 L 433.460938 566.21875 L 416.464844 563.21875 L 400.46875 560.21875 L 398.46875 557.21875 L 398.46875 509.230469 L 400.46875 505.234375 L 431.460938 499.234375 L 433.460938 499.234375 L 436.460938 490.234375 L 442.457031 474.238281 L 448.457031 462.242188 L 448.457031 456.246094 L 439.457031 441.25 L 432.460938 429.25 L 435.460938 423.253906 L 451.457031 407.257812 L 453.453125 407.257812 L 453.453125 405.257812 L 469.449219 391.261719 L 474.449219 391.261719 L 498.445312 407.257812 L 503.441406 406.257812 L 515.441406 399.257812 L 534.433594 392.261719 L 544.433594 390.261719 L 548.433594 372.265625 L 551.429688 357.269531 Z M 573.425781 441.25 L 555.429688 444.246094 L 539.433594 450.246094 L 528.4375 456.246094 L 513.441406 468.242188 L 504.441406 479.238281 L 497.445312 490.234375 L 492.445312 501.234375 L 488.445312 515.230469 L 487.445312 522.226562 L 487.445312 546.222656 L 490.445312 560.21875 L 495.445312 573.214844 L 501.441406 584.214844 L 511.441406 597.210938 L 520.4375 606.207031 L 534.433594 615.207031 L 547.433594 621.203125 L 562.429688 625.203125 L 569.425781 626.203125 L 590.421875 626.203125 L 605.417969 623.203125 L 620.414062 617.203125 L 632.410156 610.207031 L 643.410156 601.207031 L 650.40625 594.210938 L 660.40625 580.214844 L 667.402344 565.21875 L 671.402344 549.222656 L 672.402344 542.222656 L 672.402344 524.226562 L 669.402344 508.230469 L 664.402344 495.234375 L 656.40625 481.238281 L 644.410156 467.242188 L 633.410156 458.242188 L 619.414062 450.246094 L 603.417969 444.246094 L 594.421875 442.246094 L 585.421875 441.25 Z M 573.425781 441.25 " fill-opacity="1" fill-rule="nonzero"/><path fill="#1d9ae5" d="M 229.507812 67.339844 L 406.464844 67.339844 L 414.464844 71.339844 L 421.460938 79.335938 L 423.460938 85.335938 L 423.460938 93.332031 L 420.464844 101.332031 L 412.464844 108.328125 L 407.464844 110.328125 L 394.46875 110.328125 L 395.46875 300.28125 L 409.464844 325.277344 L 423.460938 349.269531 L 438.457031 376.265625 L 443.457031 386.261719 L 428.460938 401.257812 L 420.464844 408.257812 L 417.464844 407.257812 L 404.46875 384.261719 L 390.46875 360.269531 L 376.472656 335.273438 L 362.476562 311.28125 L 358.476562 302.28125 L 358.476562 137.320312 L 359.476562 110.328125 L 274.5 110.328125 L 274.5 306.28125 L 264.5 325.277344 L 251.503906 348.269531 L 235.507812 377.261719 L 222.511719 401.257812 L 209.515625 424.253906 L 196.519531 448.246094 L 189.519531 459.242188 L 185.519531 457.242188 L 175.523438 447.246094 L 167.523438 440.25 L 164.527344 436.25 L 179.523438 408.257812 L 188.519531 392.261719 L 201.515625 368.265625 L 214.511719 345.269531 L 227.511719 321.277344 L 239.507812 299.28125 L 240.507812 110.328125 L 228.511719 110.328125 L 222.511719 107.328125 L 217.511719 103.332031 L 213.511719 95.332031 L 213.511719 83.335938 L 217.511719 75.335938 L 224.511719 69.339844 Z M 229.507812 67.339844 " fill-opacity="1" fill-rule="nonzero"/><path fill="#1d9ae5" d="M 189.519531 507.230469 L 197.515625 513.230469 L 208.515625 522.226562 L 221.511719 533.226562 L 235.507812 544.222656 L 252.503906 558.21875 L 271.5 572.214844 L 287.496094 584.214844 L 304.492188 596.210938 L 327.484375 612.207031 L 345.480469 624.203125 L 367.476562 638.199219 L 388.472656 651.195312 L 420.464844 669.191406 L 432.460938 675.191406 L 435.460938 677.191406 L 148.53125 677.191406 L 136.53125 673.191406 L 126.535156 664.195312 L 120.535156 652.195312 L 119.535156 648.199219 L 119.535156 637.199219 L 123.535156 626.203125 L 132.535156 609.207031 L 145.53125 586.210938 L 161.527344 557.21875 L 174.523438 534.226562 L 188.519531 509.230469 Z M 189.519531 507.230469 " fill-opacity="1" fill-rule="nonzero"/><path fill="#254c72" d="M 655.40625 126.324219 L 734.386719 126.324219 L 741.382812 129.324219 L 745.382812 134.324219 L 746.382812 138.320312 L 746.382812 417.253906 L 714.390625 385.261719 L 703.394531 376.265625 L 695.394531 370.265625 L 689.398438 368.265625 L 681.398438 368.265625 L 671.402344 373.265625 L 660.40625 381.261719 L 655.40625 380.261719 L 645.40625 373.265625 L 644.410156 372.265625 L 644.410156 136.324219 L 648.40625 130.324219 L 652.40625 127.324219 Z M 655.40625 126.324219 " fill-opacity="1" fill-rule="nonzero"/><path fill="#1d9ae5" d="M 232.507812 428.25 L 407.464844 428.25 L 413.464844 437.25 L 425.460938 458.242188 L 426.460938 462.242188 L 417.464844 478.238281 L 396.46875 483.238281 L 386.472656 488.238281 L 380.472656 495.234375 L 377.472656 504.234375 L 377.472656 557.21875 L 379.472656 566.21875 L 384.472656 574.214844 L 392.46875 579.214844 L 405.464844 583.214844 L 416.464844 585.210938 L 426.460938 603.207031 L 421.460938 613.207031 L 413.464844 627.203125 L 407.464844 625.203125 L 383.472656 610.207031 L 353.480469 590.210938 L 336.484375 578.214844 L 322.488281 568.21875 L 284.496094 540.222656 L 266.5 526.226562 L 252.503906 515.230469 L 236.507812 502.234375 L 226.511719 494.234375 L 213.511719 483.238281 L 205.515625 476.238281 L 211.515625 465.242188 L 227.511719 436.25 Z M 232.507812 428.25 " fill-opacity="1" fill-rule="nonzero"/><path fill="#1d9ae5" d="M 150.527344 471.242188 L 157.527344 477.238281 L 168.523438 487.238281 L 174.523438 492.234375 L 166.523438 507.230469 L 151.527344 534.226562 L 123.535156 584.214844 L 108.539062 611.207031 L 103.539062 623.203125 L 100.542969 636.199219 L 100.542969 650.195312 L 103.539062 662.195312 L 109.539062 674.191406 L 118.535156 684.1875 L 128.535156 691.1875 L 137.53125 695.1875 L 145.53125 697.183594 L 468.453125 697.183594 L 481.449219 693.1875 L 491.445312 687.1875 L 496.445312 683.1875 L 505.441406 685.1875 L 527.4375 692.1875 L 525.4375 697.183594 L 519.4375 705.183594 L 511.441406 712.183594 L 501.441406 719.179688 L 488.445312 725.179688 L 479.449219 728.179688 L 467.453125 730.175781 L 144.53125 730.175781 L 127.535156 726.179688 L 115.539062 721.179688 L 103.539062 714.179688 L 91.542969 703.183594 L 83.546875 694.1875 L 77.546875 684.1875 L 72.546875 672.191406 L 69.546875 661.195312 L 68.550781 654.195312 L 68.550781 633.199219 L 71.546875 617.203125 L 77.546875 600.210938 L 87.542969 581.214844 L 99.542969 560.21875 L 112.539062 537.222656 L 126.535156 512.230469 L 140.53125 488.238281 Z M 150.527344 471.242188 " fill-opacity="1" fill-rule="nonzero"/><path fill="#254c72" d="M 525.4375 203.304688 L 605.417969 203.304688 L 612.417969 207.304688 L 615.414062 212.304688 L 616.414062 226.300781 L 616.414062 325.277344 L 615.414062 332.273438 L 602.417969 330.273438 L 556.429688 330.273438 L 544.433594 333.273438 L 538.433594 337.273438 L 533.433594 345.269531 L 528.4375 359.269531 L 525.4375 369.265625 L 521.4375 371.265625 L 515.441406 371.265625 L 514.441406 370.265625 L 514.441406 215.304688 L 517.4375 208.304688 L 522.4375 204.304688 Z M 525.4375 203.304688 " fill-opacity="1" fill-rule="nonzero"/><path fill="#254d74" d="M 425.460938 280.289062 L 477.449219 280.289062 L 483.449219 283.285156 L 486.445312 287.285156 L 487.445312 290.285156 L 487.445312 367.265625 L 486.445312 371.265625 L 477.449219 368.265625 L 470.449219 368.265625 L 463.453125 369.265625 L 457.453125 360.269531 L 443.457031 334.273438 L 423.460938 298.28125 L 423.460938 285.285156 Z M 425.460938 280.289062 " fill-opacity="1" fill-rule="nonzero"/><path fill="#1e9ae5" d="M 296.492188 -0.644531 L 305.492188 -0.644531 L 313.488281 3.355469 L 317.488281 8.355469 L 319.488281 13.351562 L 319.488281 24.351562 L 316.488281 30.347656 L 311.488281 35.347656 L 305.492188 38.347656 L 295.492188 38.347656 L 287.496094 34.347656 L 281.496094 24.351562 L 281.496094 13.351562 L 284.496094 7.355469 L 291.496094 1.355469 Z M 296.492188 -0.644531 " fill-opacity="1" fill-rule="nonzero"/><path fill="#255682" d="M 90.542969 404.257812 L 97.542969 410.253906 L 106.539062 421.253906 L 122.535156 438.25 L 131.535156 448.246094 L 131.535156 451.246094 L 127.535156 453.246094 L 128.535156 448.246094 L 115.539062 435.25 L 108.539062 427.25 L 99.542969 417.253906 L 90.542969 406.257812 Z M 90.542969 404.257812 " fill-opacity="1" fill-rule="nonzero"/><path fill="#236090" d="M 134.53125 424.253906 L 138.53125 426.25 L 153.527344 441.246094 L 159.527344 448.246094 L 167.523438 455.246094 L 174.523438 462.242188 L 171.523438 463.242188 L 171.523438 461.242188 L 167.523438 459.242188 L 134.53125 426.25 Z M 134.53125 424.253906 " fill-opacity="1" fill-rule="nonzero"/><path fill="#245681" d="M 8.5625 241.296875 L 9.5625 241.296875 L 13.5625 268.289062 L 19.5625 288.285156 L 19.5625 291.285156 L 17.5625 291.285156 L 11.5625 272.289062 L 8.5625 257.292969 Z M 8.5625 241.296875 " fill-opacity="1" fill-rule="nonzero"/><path fill="#245784" d="M 22.558594 701.183594 L 25.558594 702.183594 L 31.558594 710.183594 L 39.554688 718.179688 L 50.554688 725.179688 L 57.550781 728.179688 L 53.550781 729.179688 L 43.554688 724.179688 L 32.558594 715.179688 L 25.558594 707.183594 Z M 22.558594 701.183594 " fill-opacity="1" fill-rule="nonzero"/><path fill="#25537d" d="M 109.539062 731.175781 L 119.535156 734.175781 L 119.535156 735.175781 L 107.539062 736.175781 L 85.542969 736.175781 L 85.542969 734.175781 L 109.539062 733.175781 Z M 109.539062 731.175781 " fill-opacity="1" fill-rule="nonzero"/><path fill="#245783" d="M 91.542969 375.265625 L 94.542969 375.265625 L 101.539062 384.261719 L 113.539062 398.257812 L 117.535156 404.257812 L 113.539062 402.257812 L 104.539062 392.261719 L 93.542969 378.261719 Z M 91.542969 375.265625 " fill-opacity="1" fill-rule="nonzero"/><path fill="#245a87" d="M 67.550781 342.273438 L 71.546875 344.273438 L 84.546875 363.265625 L 89.542969 369.265625 L 86.542969 369.265625 L 76.546875 356.269531 L 69.546875 346.269531 Z M 67.550781 342.273438 " fill-opacity="1" fill-rule="nonzero"/><path fill="#255580" d="M 57.550781 361.269531 L 62.550781 366.265625 L 76.546875 385.261719 L 77.546875 389.261719 L 72.546875 384.261719 L 58.550781 365.265625 Z M 57.550781 361.269531 " fill-opacity="1" fill-rule="nonzero"/><path fill="#245987" d="M 142.53125 464.242188 L 147.53125 465.242188 L 161.527344 479.238281 L 158.527344 479.238281 L 151.527344 472.242188 L 145.53125 467.242188 L 142.53125 468.242188 L 138.53125 472.242188 L 139.53125 468.242188 Z M 142.53125 464.242188 " fill-opacity="1" fill-rule="nonzero"/><path fill="#254f78" d="M 227.511719 229.300781 L 229.507812 229.300781 L 230.507812 253.292969 L 224.511719 250.292969 L 224.511719 248.296875 L 226.511719 248.296875 Z M 227.511719 229.300781 " fill-opacity="1" fill-rule="nonzero"/><path fill="#245986" d="M 179.523438 469.242188 L 183.519531 471.242188 L 195.519531 482.238281 L 202.515625 488.238281 L 199.515625 489.238281 L 190.519531 480.238281 L 182.519531 473.242188 Z M 179.523438 469.242188 " fill-opacity="1" fill-rule="nonzero"/><path fill="#235f8f" d="M 435.460938 671.191406 L 439.457031 673.191406 L 445.457031 680.191406 L 443.457031 681.1875 L 431.460938 675.191406 L 435.460938 673.191406 Z M 435.460938 671.191406 " fill-opacity="1" fill-rule="nonzero"/><path fill="#255783" d="M 172.523438 490.234375 L 176.523438 492.234375 L 185.519531 501.234375 L 193.519531 508.230469 L 194.519531 510.230469 L 190.519531 508.230469 L 178.523438 497.234375 L 173.523438 492.234375 Z M 172.523438 490.234375 " fill-opacity="1" fill-rule="nonzero"/><path fill="#25537d" d="M 35.558594 681.191406 L 37.554688 681.191406 L 43.554688 693.1875 L 46.554688 698.183594 L 42.554688 696.1875 L 35.558594 684.1875 Z M 35.558594 681.191406 " fill-opacity="1" fill-rule="nonzero"/><path fill="#245986" d="M 90.542969 404.257812 L 97.542969 410.253906 L 103.539062 417.253906 L 102.539062 420.253906 L 92.542969 409.253906 Z M 90.542969 404.257812 " fill-opacity="1" fill-rule="nonzero"/><path fill="#255683" d="M 45.554688 344.273438 L 48.554688 345.269531 L 56.550781 357.269531 L 56.550781 359.269531 L 53.550781 358.269531 L 45.554688 345.269531 Z M 45.554688 344.273438 " fill-opacity="1" fill-rule="nonzero"/><path fill="#255682" d="M 410.464844 643.199219 L 412.464844 643.199219 L 421.460938 654.195312 L 424.460938 658.195312 L 420.464844 656.195312 L 410.464844 645.199219 Z M 410.464844 643.199219 " fill-opacity="1" fill-rule="nonzero"/><path fill="#255580" d="M 109.539062 731.175781 L 119.535156 734.175781 L 119.535156 735.175781 L 107.539062 735.175781 Z M 109.539062 731.175781 " fill-opacity="1" fill-rule="nonzero"/><path fill="#3a78a6" d="M 34.558594 655.195312 L 35.558594 655.195312 L 35.558594 672.191406 L 33.558594 672.191406 L 32.558594 661.195312 Z M 34.558594 655.195312 " fill-opacity="1" fill-rule="nonzero"/><path fill="#245b8a" d="M 423.460938 658.195312 L 427.460938 660.195312 L 434.460938 668.191406 L 436.460938 671.191406 L 432.460938 669.191406 L 423.460938 660.195312 Z M 423.460938 658.195312 " fill-opacity="1" fill-rule="nonzero"/><path fill="#245a88" d="M 124.535156 413.253906 L 128.535156 415.253906 L 135.53125 423.253906 L 132.535156 423.253906 L 124.535156 415.253906 Z M 124.535156 413.253906 " fill-opacity="1" fill-rule="nonzero"/></svg>